<?xml version="1.0" standalone="no"?>
<!DOCTYPE svg PUBLIC "-//W3C//DTD SVG 1.1//EN" "http://www.w3.org/Graphics/SVG/1.1/DTD/svg11.dtd" >
<!--
2013-9-30: Created.
-->
<svg>
<metadata>
Created by iconfont
</metadata>
<defs>

<font id="iconfont" horiz-adv-x="1024" >
  <font-face
    font-family="iconfont"
    font-weight="500"
    font-stretch="normal"
    units-per-em="1024"
    ascent="896"
    descent="-128"
  />
    <missing-glyph />
    
    <glyph glyph-name="yinle" unicode="&#58948;" d="M844.743872 831.358771l-483.775168-80.814584c-1.567705-0.25071-3.031033-0.710175-4.453429-1.254573l-17.475 0c-11.915377 0-21.38403-9.532097-21.38403-21.280676l0-553.029462c-18.875906 10.912537-40.825824 17.140379-64.216557 17.140379-70.927399 0-128.433114-57.359382-128.433114-128.139425S182.512289-64.15695 253.439688-64.15695c70.926376 0 128.433114 57.359382 128.433114 128.139425 0 5.184069-0.314155 10.285251-0.899486 15.259542 0.585331 1.964748 0.899486 4.013407 0.899486 6.187933l0 449.764564 449.513854 79.267345 0-311.298955c-18.875906 10.870582-40.825824 17.142425-64.216557 17.142425-70.927399 0-128.433114-57.401338-128.433114-128.183428 0-70.738088 57.505715-128.139425 128.433114-128.139425 70.926376 0 128.432091 57.401338 128.432091 128.139425 0 5.184069-0.313132 10.285251-0.898463 15.301498 0.585331 1.966795 0.898463 4.015454 0.898463 6.187933l0 597.97307c0 10.45205-7.587815 19.190061-17.579377 20.946055-3.491521 2.173502-7.881504 3.051499-12.710486 2.257413l-11.370978-1.922792-1.170662 0C849.927941 832.864054 847.21004 832.320679 844.743872 831.358771z"  horiz-adv-x="1024" />

    
    <glyph glyph-name="icon_account" unicode="&#58890;" d="M386.56 422.432c-59.456 40.288-98.56 108.416-98.56 185.568 0 123.616 100.384 224 224 224 123.616 0 224-100.384 224-224 0-77.152-39.104-145.28-98.56-185.568 114.336-48.832 194.56-162.336 194.56-294.432v-128h-640v128c0 132.096 80.224 245.6 194.56 294.432z"  horiz-adv-x="1024" />

    
    <glyph glyph-name="duihuakuang" unicode="&#58900;" d="M2.198036 749.322359l-1.108241 16.882506-1.089821-17.302061 0.491187-7.79043 0-18.251689 0.024559-0.599657c0.010233-0.249687 0.25378-6.132674 0.581238-6.39464 0.007163-0.00614 0.013303-0.008186 0.020466-0.008186 0.321318 0 0.528026 6.009877 0.537236 6.271844l0.020466 0.592494 0 18.215874L2.198036 749.322359 2.198036 749.322359zM1.090819 761.771903l0.822738-12.538571-0.823761-13.1853-0.809435 12.856819L1.090819 761.771903 1.090819 761.771903zM1.54926 724.53686c-0.055259-1.357927-0.223081-4.848425-0.450255-4.680603-0.231267 0.185218-0.419556 3.669576-0.484024 5.033643L0.614981 739.134323l0.474814-7.544837 0.459464 7.354502L1.54926 724.53686 1.54926 724.53686zM1.54926 724.53686M699.554604 1.451304c-5.628184 0-10.980076 2.041496-15.173584 5.792936L486.108281 175.389822 241.311949 175.389822c-41.718147 0-75.656097 33.82334-75.656097 75.656097L165.655852 699.078025c0 41.664935 33.93795 75.65712 75.656097 75.65712l727.153198 0c41.828664 0 75.766614-33.993209 75.766614-75.65712l0-448.087365c0-41.831734-33.93795-75.656097-75.766614-75.656097L725.767616 175.334563l-2.594081-150.597927c-0.10847-9.270131-5.628184-17.328667-13.905708-21.025872C706.232701 2.221854 702.754483 1.451304 699.554604 1.451304L699.554604 1.451304 699.554604 1.451304zM241.311949 727.387791c-15.560394 0-28.308743-12.69309-28.308743-28.365025l0-448.091458c0-15.724123 12.748349-28.362978 28.308743-28.362978L494.549534 222.568331c5.684466 0 11.035334-2.042519 15.34243-5.629207l166.708859-141.599995 2.152013 123.94387c0.327458 12.912078 10.761088 23.285333 23.61893 23.285333l266.094404 0c15.616676 0 28.473495 12.639878 28.473495 28.362978L996.939665 699.02379c0 15.616676-12.803607 28.365025-28.473495 28.365025L241.311949 727.388814 241.311949 727.387791 241.311949 727.387791zM463.204642 591.471239l283.643082 0 0-47.237861L463.204642 544.233378 463.204642 591.471239 463.204642 591.471239 463.204642 591.471239zM463.204642 461.458139l283.643082 0 0-47.288003L463.204642 414.170137 463.204642 461.458139 463.204642 461.458139 463.204642 461.458139zM463.204642 461.458139"  horiz-adv-x="1122" />

    
    <glyph glyph-name="fangdajing" unicode="&#59108;" d="M889.6 57.6l-192 192C742.4 300.8 768 371.2 768 448c0 179.2-140.8 320-320 320S128 627.2 128 448s140.8-320 320-320c76.8 0 147.2 25.6 198.4 70.4l192-192c12.8-12.8 32-12.8 44.8 0C896 19.2 896 44.8 889.6 57.6zM192 448c0 140.8 115.2 256 256 256s256-115.2 256-256c0-140.8-115.2-256-256-256S192 307.2 192 448z"  horiz-adv-x="1024" />

    
    <glyph glyph-name="faxian" unicode="&#58887;" d="M1111.752 383.777c0 100.886-31.477 197.677-91.181 280.042-7.939 10.776-20.579 17.69-34.834 17.69-9.377 0-18.055-2.992-25.132-8.072-10.741-7.669-17.743-20.239-17.743-34.443 0-9.344 3.030-17.98 8.16-24.979 46.819-63.537 74.981-143.511 74.981-230.063 0-0.077-0-0.154-0-0.23 0-0.048 0-0.12 0-0.191 0-86.542-28.162-166.507-75.821-231.23-4.278-5.798-7.299-14.423-7.299-23.754 0-14.196 6.993-26.758 17.723-34.429 7.070-5.057 15.733-8.033 25.092-8.033 14.245 0 26.88 6.897 34.746 17.535 57.111 77.489 91.353 174.704 91.353 279.916 0 0.086-0 0.171-0 0.257zM319.488 673.525c-6.944 5.015-15.627 8.021-25.012 8.021-14.27 0-26.917-6.95-34.741-17.65-57.004-77.49-91.176-174.657-91.176-279.806 0-0.11 0-0.22 0-0.33-0-100.825 31.521-197.659 91.091-279.98 7.898-10.831 20.544-17.789 34.815-17.789 9.391 0 18.078 3.013 25.148 8.125 10.725 7.691 17.711 20.263 17.711 34.466 0 9.332-3.016 17.959-8.125 24.96-46.764 63.511-74.891 143.44-74.891 229.939 0 0.104 0 0.208 0 0.312-0 82.928 25.912 162.622 74.975 230.384 5.035 6.875 8.056 15.5 8.056 24.831 0 14.196-6.993 26.758-17.723 34.429zM1095.858 879.705c-7.925 8.918-19.425 14.51-32.231 14.51-10.825 0-20.716-3.995-28.281-10.591-8.929-7.755-14.574-19.191-14.574-31.945 0-10.771 4.027-20.602 10.656-28.070 103.774-116.542 167.242-271.033 167.364-440.347-0.001-160.92-59.482-317.103-167.402-439.315-6.592-7.424-10.619-17.255-10.619-28.026 0-12.754 5.645-24.19 14.574-31.945 7.569-6.61 17.47-10.613 28.307-10.613 12.816 0 24.325 5.6 32.211 14.487 117.055 131.466 188.593 305.617 188.722 496.474-0.001 181.547-67.050 357.631-188.728 495.381zM85.66 383.777c0 161.48 59.481 317.663 167.357 439.875 6.592 7.424 10.619 17.255 10.619 28.026 0 12.754-5.645 24.19-14.574 31.945-7.553 6.593-17.431 10.586-28.243 10.586-12.812 0-24.314-5.608-32.186-14.503-117.002-131.475-188.503-305.607-188.634-496.437 0.001-181.541 66.961-357.669 188.595-495.33 7.918-8.929 19.418-14.528 32.227-14.528 10.829 0 20.723 4.002 28.284 10.608 8.93 7.756 14.575 19.191 14.575 31.946 0 10.771-4.027 20.602-10.656 28.070-103.771 116.55-167.238 271.046-167.364 440.364zM644.363 681.539c-165.443 0-300.032-133.565-300.032-297.761 0-84.191 36.463-164.953 99.996-221.496 7.569-6.756 17.609-10.885 28.614-10.885 12.65 0 24.026 5.456 31.903 14.143 6.828 7.513 10.989 17.49 10.989 28.44 0 12.6-5.51 23.914-14.251 31.662-43.867 38.982-71.367 95.465-71.457 158.372 0 117.033 96.123 212.443 214.284 212.443s214.328-95.41 214.328-212.68c0-117.27-96.167-212.636-214.328-212.636h-15.004c-0.024 0-0.053 0-0.082 0-18.498 0-34.257-11.727-40.249-28.152-15.059-41.641-41.359-75.867-75.237-100.211 19.211 15.176 14.586 4.712 14.586-6.832 0-11.962 4.966-22.765 12.949-30.458 7.735-7.525 18.291-12.158 29.93-12.158 12.016 0 22.879 4.938 30.669 12.895 37.679 38.159 65.045 86.571 77.536 140.674 137.823-53.314 264.977 77.357 264.977 236.923-0.089 164.152-134.678 297.717-300.077 297.717z"  horiz-adv-x="1291" />

    
    <glyph glyph-name="fujinderen" unicode="&#58918;" d="M511.67744 831.30368c-198.54336 0-359.49568-160.95232-359.49568-359.49568s359.49568-532.36736 359.49568-532.36736 359.49056 333.824 359.49056 532.36736c0 198.54336-160.9472 359.49568-359.49056 359.49568z m176.128-567.41376H335.2576s-6.42048 30.17216 27.62752 43.02848c78.16704 29.52192 100.77184 42.24 105.91232 55.52128 4.53632 11.73504 10.4448 39.33696 2.41152 46.74048-11.63264 10.7264-22.81984 24.58112-28.19584 42.86464 0 0-19.70176 17.05984-26.59328 41.1392 0 0-1.97632 16.512 14.72 10.8544 0 0-4.84352 58.06592 0.17408 67.38432 5.0176 9.3184 80.3584 121.69216 158.77632-0.13824 5.85216-9.07776-0.71168-67.24608-0.71168-67.24608s18.11968 7.36256 12.45696-13.13792c-7.94112-28.71296-24.6272-38.85056-24.6272-38.85056-2.01216-6.04672-2.29376-20.51072-22.26176-42.96192-7.43936-8.36608-3.01568-34.2272 1.14176-44.43648 8.448-20.7616 70.83008-43.84768 96.256-51.46112 44.56448-13.34272 35.46112-49.30048 35.46112-49.30048zM511.67744-85.01248l-12.19584 11.32544c-14.91456 13.84448-365.21984 341.48352-365.21984 545.49504 0 208.10752 169.30816 377.41568 377.41568 377.41568S889.088 679.91552 889.088 471.808c0-204.01152-350.30528-531.65056-365.21984-545.49504l-12.19072-11.32544z m0 898.39616c-188.34432 0-341.57568-153.23136-341.57568-341.57568 0-168.36096 279.26016-447.44704 341.57056-507.61216 62.2848 60.15488 341.57568 339.31264 341.57568 507.61216 0 188.34432-153.22624 341.57568-341.57056 341.57568z m190.08-567.41376H320.74752l-3.0208 14.18752c-3.328 15.64672 0.50176 49.0496 38.82496 63.52384 22.6048 8.53504 91.38688 34.5088 95.53408 45.22496 3.65568 9.45664 5.77536 23.46496 5.07904 28.8768-14.35648 13.68064-24.14592 28.26752-29.79328 44.38528-7.18336 7.16288-21.80608 23.81824-28.17536 46.08l-0.5632 2.80064c-0.39424 3.29728-1.07008 14.73024 6.78912 23.58784a24.82688 24.82688 0 0 0 6.59456 5.2736c-2.95936 47.95904 1.66912 56.55552 3.52768 60.0064 7.45984 13.85472 45.7728 65.60256 96.92672 65.60256 33.94048 0 65.13152-21.71392 92.69248-64.53248 2.28352-3.54816 7.99232-12.39552 3.80928-61.1328 2.61632-1.52576 4.90496-3.54816 6.78912-6.02624 5.35552-7.03488 6.48704-16.35328 3.34848-27.6992-6.58944-23.81824-18.46272-37.59104-25.97888-44.31872-2.16064-8.99584-6.70208-23.94112-23.87968-43.60192-1.29536-5.01248 0.53248-19.65568 3.44064-26.8032 4.77696-9.44128 46.0032-29.44 84.79744-41.04704 44.75904-13.39904 53.0432-49.72544 47.68768-70.87104l-3.42016-13.5168z m-345.07264 35.84h311.66976c-2.93888 5.21216-9.04192 10.58816-21.1456 14.21312-15.68768 4.69504-94.63808 29.75744-107.71456 61.87008-3.584 8.81152-13.73696 45.33248 2.06848 63.104 13.52192 15.2064 15.73376 24.8576 17.2032 31.24736 0.49664 2.17088 0.95232 3.98336 1.43872 5.45792l2.0736 6.2464 5.62688 3.41504c0.07168 0.05632 4.84864 3.38432 9.728 11.64288l-10.69568-4.9408 4.6336 31.97952c2.44736 21.72416 3.94752 49.01888 2.47808 57.03168-20.23936 30.92992-40.95488 46.60224-61.58848 46.60224-31.31392 0-58.91584-36.14208-64.78848-45.76256-1.4848-7.79264-0.55296-35.89632 1.32096-58.38848l2.27328-27.22816-9.92256 3.35872c6.25664-9.7024 13.34784-16.02048 13.45024-16.11264l3.88608-3.42016 1.52064-5.0176c3.6352-12.36992 11.20768-23.73632 23.15264-34.74944 20.2752-18.68288 2.90304-64.4352 2.15552-66.37568-7.88992-20.37248-31.80032-33.90976-116.29568-65.8176-6.1184-2.32448-10.04032-5.30944-12.52864-8.35584z"  horiz-adv-x="1024" />

    
    <glyph glyph-name="jiarugedan" unicode="&#58946;" d="M512-128H76.8c-42.496 0-76.8 34.304-76.8 76.8V819.2C0 861.696 34.304 896 76.8 896h665.6c42.496 0 76.8-34.304 76.8-76.8v-414.72c0-14.336-11.264-25.6-25.6-25.6s-25.6 11.264-25.6 25.6V819.2c0 14.336-11.264 25.6-25.6 25.6H76.8c-14.336 0-25.6-11.264-25.6-25.6v-870.4c0-14.336 11.264-25.6 25.6-25.6h435.2c14.336 0 25.6-11.264 25.6-25.6s-11.776-25.6-25.6-25.6zM998.4 128h-179.2v179.2c0 14.336-11.264 25.6-25.6 25.6s-25.6-11.264-25.6-25.6v-179.2h-179.2c-14.336 0-25.6-11.264-25.6-25.6s11.264-25.6 25.6-25.6h179.2v-179.2c0-14.336 11.264-25.6 25.6-25.6s25.6 11.264 25.6 25.6v179.2h179.2c14.336 0 25.6 11.264 25.6 25.6s-11.264 25.6-25.6 25.6zM648.704 623.104H170.496c-12.288 0-21.504 11.264-21.504 25.6s9.728 25.6 21.504 25.6h478.72c12.288 0 21.504-11.264 21.504-25.6s-9.728-25.6-22.016-25.6zM409.6 423.424H170.496c-12.288 0-21.504 11.264-21.504 25.6s9.728 25.6 21.504 25.6H409.6c12.288 0 21.504-11.264 21.504-25.6s-9.216-25.6-21.504-25.6zM561.152 223.744H170.496c-12.288 0-21.504 11.264-21.504 25.6s9.728 25.6 21.504 25.6h390.144c12.288 0 21.504-11.264 21.504-25.6s-9.216-25.6-20.992-25.6z"  horiz-adv-x="1024" />

    
    <glyph glyph-name="night" unicode="&#59133;" d="M792 699.2c10.7-13.4 23.1-25.8 36.6-36.3-13.6-10.8-26.2-23.4-37-37.1-10.6 13.5-23 25.9-36.5 36.6 13.7 10.6 26.2 23.1 36.9 36.8M791.5 793.7c0-61.4-74.3-130.5-130.5-130.5 56.2-0.9 130.4-72.5 130.4-130.5 0 58 76.1 130.6 130.6 130.6-56.2 0-130.5 69.9-130.5 130.4zM456 523.4c-2.7 0-5.4 1.2-7.3 3.5-3.2 4-2.6 9.9 1.5 13.1l93.2 74.6c4.1 3.2 9.9 2.5 13.1-1.5s2.6-9.9-1.5-13.1l-93.2-74.6c-1.8-1.3-3.8-2-5.8-2zM344.1 281.1c-2.8 0-5.5 1.2-7.4 3.6-3.2 4.1-2.4 9.9 1.6 13.1l335.5 261c4 3.2 9.9 2.4 13.1-1.6 3.2-4.1 2.4-9.9-1.6-13.1l-335.5-261.1c-1.7-1.3-3.7-1.9-5.7-1.9zM523.6-64.2c-253.3 0-459.4 204.1-459.4 455 0 208.4 142.6 389.6 346.8 440.6 7.2 1.8 15-0.9 19.5-7s4.9-14.2 1-20.7c-35.7-59.2-54.5-126.6-54.5-194.8 0-61.2 15-122.1 43.5-176.1 4.8-9.1 1.3-20.4-7.8-25.2-9.1-4.8-20.4-1.3-25.2 7.8-31.2 59.3-47.7 126.2-47.7 193.4 0 59.8 13.2 119 38.4 173.5-164.8-59.7-276.6-215-276.6-391.7 0-230.3 189.4-417.7 422.1-417.7 165.8 0 314.6 95.9 383 242.6-97.1-35.3-205.7-33.4-301.2 4.5-45.4 18-87 43.5-123.6 75.7-7.7 6.8-8.5 18.6-1.7 26.3 6.8 7.7 18.6 8.5 26.3 1.7 33.5-29.4 71.4-52.7 112.8-69.1 45.5-18.1 93.8-27.2 143.3-27.2 59.1 0 116.4 13.3 170.1 39.6 6.8 3.3 14.9 2.2 20.5-2.8s7.7-12.9 5.3-20c-63.6-184.5-238.3-308.4-434.9-308.4z"  horiz-adv-x="1024" />

    
    <glyph glyph-name="shezhi" unicode="&#58886;" d="M907.5 384c0 55.8-45.3 101.5-100.9 102.2-4.4 12.8-9.7 25.2-15.7 37.1 35.8 40 34.5 102-3.9 140.4-38.9 38.9-102.1 39.7-142 2.4-10 4.7-20.3 8.9-30.8 12.6-0.7 55.6-46.4 100.9-102.2 100.9-55.8 0-101.5-45.3-102.2-100.9-12.7-4.4-25.1-9.6-37-15.6l-0.6 0.6c-39.7 39.7-104.8 39.7-144.5 0s-39.7-104.8 0-144.5l2.2-2.2c-4.7-10-8.9-20.2-12.6-30.8-55.6-0.7-100.9-46.4-100.9-102.2s45.3-101.5 100.9-102.2c3.6-10.5 7.8-20.8 12.6-30.8l-2.2-2.2c-39.7-39.7-39.7-104.8 0-144.5s104.8-39.7 144.5 0l0.6 0.6c11.9-6 24.3-11.2 37-15.6 0.7-55.6 46.4-100.9 102.2-100.9 55.8 0 101.5 45.3 102.2 100.9 10.5 3.7 20.8 7.9 30.8 12.6 39.9-37.3 103.1-36.6 142 2.4 38.4 38.4 39.7 100.4 3.9 140.4 6 12 11.2 24.4 15.7 37.1 55.6 0.7 100.9 46.4 100.9 102.2z m-135.7-74.7c-6-21.3-14.4-41.5-25.1-60.4l17.6-17.6c28.5-28.5 28.5-74.9 0-103.4-14.3-14.3-33-21.4-51.7-21.4-18.7 0-37.4 7.1-51.7 21.4l-17.6 17.6c-18.9-10.7-39.1-19.2-60.4-25.1v-24.9c0-40.3-32.8-73.1-73.1-73.1s-73.1 32.8-73.1 73.1v24.9c-21.3 6-41.5 14.4-60.4 25.1l-17.6-17.6c-14.3-14.3-33-21.4-51.7-21.4-18.7 0-37.4 7.1-51.7 21.4-28.5 28.5-28.5 74.9 0 103.4l17.6 17.6c-10.7 18.9-19.2 39.1-25.1 60.4h-24.9c-40.3 0-73.1 32.8-73.1 73.1s32.8 73.1 73.1 73.1h24.9c6 21.3 14.4 41.5 25.1 60.4l-17.6 17.6c-28.5 28.5-28.5 74.9 0 103.4s74.9 28.5 103.4 0l17.6-17.6c18.9 10.7 39.1 19.2 60.4 25.1v24.9c0 40.3 32.8 73.1 73.1 73.1s73.1-32.8 73.1-73.1v-24.9c21.3-6 41.5-14.4 60.4-25.1l17.6 17.6c28.5 28.5 74.9 28.5 103.4 0s28.5-74.9 0-103.4l-17.6-17.6c10.7-18.9 19.2-39.1 25.1-60.4h24.9c40.3 0 73.1-32.8 73.1-73.1s-32.8-73.1-73.1-73.1h-24.9zM512 460.7c-43.2 0-78.3-35.1-78.3-78.3 0-43.2 35.1-78.3 78.3-78.3s78.3 35.1 78.3 78.3c0 43.2-35.1 78.3-78.3 78.3zM798.9 407h-64.8c-1.8 16.8-5.6 33.1-10.9 48.6-2.9 8.4-6.3 16.6-10.2 24.5-7.3 15-16.3 29.1-26.7 42l34.5 34.5 11.4 11.4c9.6 9.6 9.6 25.1 0 34.7-4.8 4.8-11.1 7.2-17.4 7.2-6.3 0-12.6-2.4-17.4-7.2L686 591.3l-34.5-34.5c-12.9 10.4-27 19.3-42 26.7-7.9 3.9-16.1 7.2-24.5 10.2-15.5 5.4-31.8 9.1-48.6 10.9v64.8c0 13.5-11 24.5-24.5 24.5s-24.5-11-24.5-24.5v-64.8c-16.8-1.8-33.1-5.6-48.6-10.9-8.4-2.9-16.6-6.3-24.5-10.2-15-7.3-29.1-16.3-42-26.7l-34.5 34.5-11.4 11.4c-4.8 4.8-11.1 7.2-17.4 7.2-6.3 0-12.6-2.4-17.4-7.2-9.6-9.6-9.6-25.1 0-34.7l11.4-11.4 34.5-34.5c-10.4-12.9-19.3-27-26.7-42-3.9-7.9-7.2-16.1-10.2-24.5-5.4-15.5-9.1-31.8-10.9-48.6h-64.8c-13.5 0-24.5-11-24.5-24.5s11-24.5 24.5-24.5h64.8c1.8-16.8 5.6-33.1 10.9-48.6 2.9-8.4 6.3-16.6 10.2-24.5 7.3-15 16.3-29.1 26.7-42L303 208.4 291.6 197c-9.6-9.6-9.6-25.1 0-34.7 9.6-9.6 25.1-9.6 34.7 0l11.4 11.4 34.5 34.5c12.9-10.4 27-19.3 42-26.7 7.9-3.9 16.1-7.2 24.5-10.2 15.5-5.4 31.8-9.1 48.6-10.9v-64.8c0-13.5 11-24.5 24.5-24.5s24.5 11 24.5 24.5v64.8c16.8 1.8 33.1 5.6 48.6 10.9 8.4 2.9 16.6 6.3 24.5 10.2 15 7.3 29.1 16.3 42 26.7l34.5-34.5 11.4-11.4c9.6-9.6 25.1-9.6 34.7 0 9.6 9.6 9.6 25.1 0 34.7l-11.4 11.4-34.5 34.5c10.4 12.9 19.3 27 26.7 42 3.9 7.9 7.2 16.1 10.2 24.5 5.4 15.5 9.1 31.8 10.9 48.6h64.8c13.5 0 24.5 11 24.5 24.5 0.2 13.5-10.8 24.5-24.3 24.5zM512 255.6c-69.9 0-126.8 56.9-126.8 126.8S442.1 509.2 512 509.2s126.8-56.9 126.8-126.8S581.9 255.6 512 255.6z"  horiz-adv-x="1024" />

    
    <glyph glyph-name="icon-" unicode="&#58947;" d="M525.312 486.4c-78.0288 13.7216-150.7328-29.2864-162.6112-96.0512s40.96-132.096 119.808-145.8176 150.7328 29.2864 162.6112 96.0512-41.7792 132.7104-119.808 145.8176z m79.4624-138.8544c-7.7824-44.6464-59.392-72.704-115.0976-62.8736S395.264 339.1488 403.2512 384s59.392 72.704 115.0976 62.8736 94.4128-54.0672 86.4256-98.7136zM901.12 514.048a413.9008 413.9008 0 1 0-327.68 274.432 266.24 266.24 0 0 0 5.3248 40.96A450.56 450.56 0 1 1 939.4176 527.36a264.192 264.192 0 0 0-38.2976-13.312zM703.2832 788.48a20.48 20.48 0 0 0 16.5888-23.7568l-71.0656-403.456a20.48 20.48 0 1 0-40.96 7.168l71.0656 403.456a20.48 20.48 0 0 0 24.3712 16.5888zM297.3696 265.0112A163.84 163.84 0 0 0 286.72 322.56c0 6.7584-40.96 5.12-40.96 0a204.8 204.8 0 0 1 15.5648-78.2336zM450.56 158.72a163.84 163.84 0 0 0-134.144 70.0416l-35.6352-20.48A204.8 204.8 0 0 1 450.56 117.76c6.5536 0 3.8912 40.96 0 40.96zM920.1664 581.4272a287.9488 287.9488 0 0 1-42.1888 3.8912 245.76 245.76 0 0 1-189.0304 160.768 286.72 286.72 0 0 1 3.8912 40.96h3.2768a286.72 286.72 0 0 0 225.28-204.8z"  horiz-adv-x="1024" />

    
    <glyph glyph-name="dingshi" unicode="&#58907;" d="M541.376 756.48a29.568 29.568 0 1 0-59.264 0V852.8c0 16.384 13.248 29.632 29.632 29.632l3.84 0.064a498.56 498.56 0 0 0 455.168-693.312A498.304 498.304 0 0 0 14.4 361.408a29.312 29.312 0 0 0-0.384 11.904 496.448 496.448 0 0 0 39.488 205.568A495.872 495.872 0 0 0 238.72 800.64l-37.056 7.168a29.632 29.632 0 0 0 11.52 58.176l97.024-18.88 29.12-5.76-2.56-13.184-3.2-15.936-1.024-5.376a29.696 29.696 0 0 0-3.52-17.792l-14.272-73.856a29.632 29.632 0 0 0-58.24 11.456l3.264 16.64a436.8 436.8 0 0 1-151.68-187.776 436.544 436.544 0 0 1-34.816-157.632h34.496a29.568 29.568 0 1 0 0-59.264h-32.32a439.04 439.04 0 0 1 265.28-358.912 437.12 437.12 0 0 1 125.312-32.64v33.216a29.568 29.568 0 1 0 59.264 0v-35.392a439.04 439.04 0 0 1 423.68 393.728h-33.216a29.568 29.568 0 1 0 0 59.264h35.328a439.04 439.04 0 0 1-409.664 424.32V756.48zM538.944 653.44a26.944 26.944 0 0 1-53.888 0v-297.92l242.688 1.536a26.944 26.944 0 0 1-0.32 53.888l-188.48-1.152V653.44z"  horiz-adv-x="1024" />

    
    <glyph glyph-name="music" unicode="&#59295;" d="M626.82758633 374.68965557c0 3.10344786 0 3.10344786 0 0v9.31034443 384.82758633c-18.62068974 6.20689658-40.34482734 9.31034443-58.96551709 12.41379317v-304.13793165c-9.31034443 3.10344786-18.62068974 6.20689658-27.93103506 6.20689658h-58.96551709c-21.7241376 0-43.44827607-9.31034443-58.96551709-24.82758545-18.62068974-18.62068974-27.93103418-43.44827607-27.93103417-71.37931113v-6.20689571c0-27.93103418 12.41379317-52.7586205 27.93103417-71.37931112 15.51724102-15.51724102 37.24137949-24.82758633 58.96551709-24.82758545h58.96551709c46.55172393-3.10344786 86.89655215 40.34482734 86.89655215 90zM437.51724102 703.6551726600001c-111.7241376-46.55172393-201.7241376-136.55172393-248.27586152-248.2758624h65.17241366c37.24137949 80.68965557 102.41379316 145.86206924 183.10344786 183.10344872v65.17241368zM763.37931026 315.72413759999995c-37.24137949-80.68965557-102.41379316-145.86206924-183.10344786-183.10344786v-65.17241367c111.7241376 46.55172393 201.7241376 136.55172393 248.27586153 248.27586153h-65.17241367zM512 834c-248.2758624 0-450-201.7241376-450-450s201.7241376-450 450-450 450 201.7241376 450 450-201.7241376 450-450 450z m0-850.34482734c-220.34482734 0-400.34482734 180-400.34482734 400.34482734 0 220.34482734 180 400.34482734 400.34482734 400.34482734 18.62068974 0 37.24137949-3.10344786 55.86206924-3.10344785 21.7241376-3.10344786 40.34482734-6.20689658 58.96551709-12.41379316 164.48275898-49.65517266 285.51724102-201.7241376 285.51724101-381.72413848 0-223.44827607-180-403.44827607-400.34482734-403.44827519z"  horiz-adv-x="1024" />

    
    <glyph glyph-name="jiashi" unicode="&#58625;" d="M512-66.13999999999999c248.617 0 450.14 201.523 450.14 450.15 0 248.607-201.523 450.13-450.14 450.13C263.373 834.14 61.85 632.617 61.85 384S263.373-66.13999999999999 512-66.13999999999999z m379.218 381.747c-14.398-80.773-52.47-152.986-106.578-208.722-51.784-53.37-118.262-91.617-192.614-107.807 3.737 38.564 8.222 91.997 15.288 137.636C626.729 262.37 665.989 316.97 775.762 338.28999999999996c30.822 5.99 63.14 6.133 95.457 5.406 16.026 0.533 25.19-6.174 19.999-28.088zM146.053 513.352a399.268 399.268 0 0 0 93.307 155.402c70.318 72.5 171.49 108.728 272.65 108.728 101.14 0 202.291-36.229 272.62-108.728a398.991 398.991 0 0 0 93.296-155.402c5.305-19.886-1.76-29.276-21.094-28.201-63.468 2.519-200.223 4.526-228.29 5.98 24.094-28.18 38.737-65.229 38.737-105.738 0-44.176-17.377-84.194-45.475-113.152a156.14 156.14 0 0 0-33.895-26.46 151.5 151.5 0 0 0-151.808 0 156.13 156.13 0 0 0-33.905 26.47c-28.098 28.948-45.475 68.966-45.475 113.152 0 40.51 14.622 77.547 38.748 105.728-28.089-1.454-164.833-3.461-228.29-5.98-19.354-1.075-26.39 8.315-21.126 28.2z m6.707-169.657c32.318 0.717 64.645 0.584 95.458-5.406C358 316.96900000000005 397.27 262.369 416.696 136.71400000000006c7.035-45.64 11.54-99.072 15.268-137.625-74.363 16.169-140.82 54.425-192.614 107.796-54.098 55.736-92.17 127.949-106.568 208.722-5.192 21.914 3.953 28.62 19.978 28.088zM424.858 295.43399999999997c8.601-8.857 18.432-16.384 29.255-22.333a120.72 120.72 0 0 1 115.774 0 124.109 124.109 0 0 1 29.235 22.333c22.313 22.979 36.096 54.733 36.096 89.805 0 35.052-13.783 66.806-36.096 89.764-44.954 46.326-129.31 46.326-174.264 0-22.293-22.958-36.076-54.712-36.076-89.764 0-35.072 13.783-66.826 36.076-89.805z m67.85 138.414a49.777 49.777 0 0 0 38.594 0c18.484-7.823 31.52-26.583 31.52-48.455 0-20.654-11.613-38.523-28.448-47.043a49.9 49.9 0 0 0-44.748 0c-16.866 8.52-28.457 26.389-28.457 47.043 0 21.872 13.035 40.632 31.539 48.455z"  horiz-adv-x="1024" />

    
    <glyph glyph-name="wode-xiaoxi" unicode="&#58987;" d="M0 896v-767.939437a256.302815 256.302815 0 0 1 256.060563-256.060563h853.212207A256.302815 256.302815 0 0 1 1365.333333 128.060563V896H0zM1308.404069 128.060563a199.373551 199.373551 0 0 0-199.131299-199.131299H256.060563a199.373551 199.373551 0 0 0-199.131299 199.131299V839.070736h1251.474805V128.060563zM1208.353915 677.973031L1170.07807 720.124911 682.666667 280.194937l-484.504377 439.203218L159.886444 677.246274l522.780223-473.84528L1208.353915 677.973031z"  horiz-adv-x="1365" />

    
    <glyph glyph-name="yunpan" unicode="&#58921;" d="M802.286933 91.733333l-640.187733 0.4608c-12.9536 2.7648-126.464 30.3616-126.481067 141.226667 0 104.004267 87.381333 141.397333 169.642667 141.806933-2.338133 21.896533-21.572267 261.239467 236.663467 299.6224a208.554667 208.554667 0 0 0 23.893333 1.416534c126.1568 0 202.888533-116.360533 216.2176-147.0976 4.693333 0.836267 24.098133 3.959467 50.7392 3.959466 75.434667 0 208.128-24.098133 249.429333-185.361066 0.238933-1.0752 4.7616-23.517867 5.393067-31.163734 4.727467-54.459733-12.6976-103.765333-51.797333-146.432-47.035733-51.268267-114.858667-78.199467-133.4272-78.4384h-0.085334zM167.560533 125.934933l634.180267-0.068266c9.6256 1.092267 66.730667 21.435733 108.9024 67.362133 32.3584 35.328 46.830933 75.861333 42.973867 120.507733-0.273067 3.1232-2.440533 15.428267-4.6592 26.402134-35.362133 138.103467-150.6304 158.8736-216.1664 158.8736-26.2656 0-44.458667-3.3792-45.226667-3.5328l-26.2656-5.034667-10.359467 24.712533c-8.226133 19.746133-77.294933 126.976-185.088 126.976-6.2976 0-12.834133-0.3584-19.473066-1.109333-231.8848-34.474667-208.213333-253.678933-207.086934-262.997333l4.437334-36.932267h-37.1712c-41.130667 0-136.8064-10.496-136.8064-107.6736 0.017067-79.786667 77.909333-102.894933 97.809066-107.485867zM807.389867 199.441067c0-9.472-9.5744-17.066667-21.333334-17.066667H646.656c-11.758933 0-21.333333 7.594667-21.333333 17.066667 0 9.437867 9.5744 17.066667 21.333333 17.066666h139.400533c11.758933 0 21.333333-7.645867 21.333334-17.066666z"  horiz-adv-x="1024" />

    
    <glyph glyph-name="yinlebofangxuanlvjiezou" unicode="&#58671;" d="M89.721 558.637c-20.002 0-36.215-16.214-36.215-36.215v-642.753h72.43V522.423c-0.001 20-16.215 36.214-36.215 36.214zM375.219 860.273c-20.001 0-36.215-16.214-36.215-36.215v-944.389h72.43V824.058c0 20.001-16.214 36.215-36.215 36.215zM660.717 558.637c-20.001 0-36.215-16.214-36.215-36.215v-642.753h72.43V522.423c0 20-16.214 36.214-36.215 36.214zM946.216 808.236c-20.001 0-36.215-16.214-36.215-36.215v-892.351h72.43V772.021c0 20-16.215 36.215-36.215 36.215z"  horiz-adv-x="1024" />

    
    <glyph glyph-name="tubiaozhizuomoban1" unicode="&#58640;" d="M858.52205044 611.4636876l62.95296715 62.95296714-43.18042029 43.18949444-61.90263563-61.90376993c-79.69361764 73.05701989-185.90980656 117.64620012-302.54537457 117.64620011-247.34398986 0-447.85181603-200.50782618-447.85181606-447.85408459 0-247.34398986 200.50782618-447.8529503 447.85181606-447.85295031 247.3462584 0 447.85521884 200.50782618 447.85521884 447.85295031-0.00113425 108.72405383-38.74770384 208.39438643-103.1797555 285.96919283zM646.16680274 895.48874634H381.52637146v-61.07008348h264.64043128V895.48874634zM513.73278728 692.23484696c-200.57625144 0-363.1685703-162.60083902-363.1685703-363.16963531 0-200.5687963 162.59338387-363.16963532 363.1685703-363.16963532 200.5687963 0 363.16963532 162.60083902 363.16963531 363.16963532 0 200.5687963-162.60083902 363.16963532-363.16963531 363.16963531zM542.40525141 420.2564704V558.4364045h-57.34279822v-138.17886908c-38.77098225-12.17956689-66.89815621-48.40195665-66.89815621-91.19232377 0-52.7791882 42.79036712-95.57062033 95.5684903-95.57062034 52.78131823 0 95.57275037 42.79249716 95.57275039 95.57062034 0 42.78930211-28.12717397 79.01169187-66.90028626 91.19125875z m-28.67246413-129.41908088c-21.11082326 0-38.22782213 17.11593385-38.22782213 38.22782213 0 21.11188827 17.11699886 38.22995217 38.22782213 38.22995216 21.11295332 0 38.22995217-17.11699886 38.22995216-38.22995216 0-21.11082326-17.11699886-38.22782213-38.22995216-38.22782213z"  horiz-adv-x="1024" />

    
    <glyph glyph-name="shimian" unicode="&#58952;" d="M884.8 626.1c-1.1 0.7-2.2 1.3-3.4 1.8l-2.7 0.9c-0.3 0.1-0.6 0.1-0.9 0.2-0.6 0.1-1.3 0.2-1.9 0.3-0.6 0-1.1 0.1-1.7 0.1-0.7 0-1.4 0-2.1-0.1-1-0.1-1.9-0.3-2.8-0.5l-0.9-0.3c-0.6-0.2-1.2-0.4-1.8-0.7-0.3-0.1-0.6-0.3-0.9-0.4-1.5-0.7-2.9-1.6-4.2-2.7L769 547c-5.1-4.3-11.6-6.7-18.3-6.7H275.2c-6.6 0-13.1 2.4-18.3 6.7l-92.3 77.5c-3.6 3-8.1 4.7-12.8 4.7-5.9 0-11.4-2.6-15.2-7.1-0.9-1-1.6-2.2-2.3-3.3l-0.9-1.8c-0.9-2.1-1.4-4.3-1.5-6.5-0.1-1.3 0-2.5 0.1-3.8 0.2-1.6 0.6-3.1 1.2-4.6 0.4-0.9 0.8-1.8 1.3-2.6 0.2-0.3 0.3-0.6 0.5-0.8 0.4-0.5 0.7-1.1 1.1-1.6 0.8-1 1.8-2 2.8-2.9l173.8-145.8c1.2-1 1.8-2.7 1.4-4.3-0.4-1.6-1.6-2.8-3.2-3.2-19-4.6-36.2-15.5-48.5-30.9-12.6-15.8-19.3-34.9-19.3-55.2 0-48.8 39.7-88.5 88.5-88.5 46.7 0 85.5 36.5 88.4 83.1 0.1 1.6 1.1 3.1 2.6 3.7 0.5 0.2 1.1 0.4 1.7 0.4 1 0 2-0.3 2.8-1l85.8-72 89.2 74.8c0.8 0.7 1.8 1 2.8 1 0.6 0 1.2-0.1 1.8-0.4 1.5-0.7 2.5-2.2 2.5-3.8 0.7-23.1 10.2-44.6 26.8-60.8 16.6-16.2 38.5-25.1 61.7-25.1 48.8 0 88.5 39.7 88.5 88.5 0 20.5-7.2 40.4-20.1 56.2-12.8 15.6-30.7 26.4-50.3 30.5-1.6 0.3-2.9 1.6-3.3 3.2-0.4 1.6 0.1 3.3 1.4 4.3l173 145.2c2.5 2.1 4.5 4.9 5.7 7.9 0.7 1.8 1.1 3.6 1.3 5.6 0.1 0.6 0.1 1.3 0.1 1.9 0 4.6-1.7 9-4.7 12.6-1.3 1.6-2.8 2.9-4.5 4z m-553-325.9c-30.1 0-54.6 24.5-54.6 54.6s24.5 54.6 54.6 54.6 54.6-24.5 54.6-54.6-24.5-54.6-54.6-54.6z m199.5 47.3c-5.1-4.3-11.6-6.6-18.2-6.6s-13.1 2.4-18.2 6.6l-0.3 0.3L372 450.5c-9.3 7.7-12.6 20.1-8.5 31.5 4.1 11.4 14.6 18.8 26.7 18.8h245.6c12.1 0 22.6-7.4 26.7-18.8 4.1-11.4 0.8-23.7-8.5-31.5l-122.7-103z m221.1 7.3c0-30.1-24.5-54.6-54.6-54.6s-54.6 24.5-54.6 54.6 24.5 54.6 54.6 54.6 54.6-24.5 54.6-54.6zM852 458.4c-1.8 2.7-4.8 4.3-8 4.3-2.2 0-4.3-0.8-6-2.2l-16-13.4c-3.6-3-4.4-8.3-2-12.2 15.4-24 23.5-51.7 23.5-80.2 0-82.3-67-149.3-149.3-149.3-37.4 0-73.1 14-100.7 39.3-1.8 1.6-4.1 2.5-6.5 2.5-2.2 0-4.3-0.8-5.9-2.2l-56.7-47.7c-3.3-2.7-7.4-4.2-11.6-4.2-4.2 0-8.4 1.5-11.6 4.2l-28.7 24.1c-0.3 0.2-0.5 0.5-0.7 0.8l-27 22.6c-1.7 1.4-3.8 2.2-5.9 2.2-2.4 0-4.7-0.9-6.5-2.5-27.7-25.3-63.4-39.3-100.7-39.3-82.3 0-149.3 67-149.3 149.3 0 28.3 8.1 56.1 23.6 80.3 2.6 3.9 1.7 9.2-1.9 12.2L188 460.5c-1.7 1.4-3.8 2.2-6 2.2-3.2 0-6.2-1.6-8-4.3-20.5-30.9-31.3-66.8-31.3-103.8 0-104.2 84.8-188.9 188.9-188.9 33.6 0 66.7 9.1 95.9 26.2 2.8 1.6 6 2.5 9.2 2.5 4.2 0 8.3-1.5 11.6-4.2l58.6-49.2c1.7-1.4 3.9-2.2 6.1-2.2 2.2 0 4.4 0.8 6.1 2.2l58.6 49.2c3.1 2.8 7.2 4.4 11.5 4.4 3.2 0 6.3-0.9 9.1-2.5 28.9-17.2 62.1-26.2 95.9-26.2 104.1 0 188.8 84.7 188.8 188.8 0.2 36.9-10.6 72.8-31 103.7z"  horiz-adv-x="1024" />

    
    <glyph glyph-name="gedan" unicode="&#58955;" d="M52.893105 689.41269h508.951651c30.537039 0 50.901059 20.53785 50.901059 51.344624 0 30.808773-20.36402 51.344624-50.901059 51.344624H52.893105C22.354068 792.101938 1.99804 766.430125 1.99804 740.757314c0-25.671813 20.356028-51.344624 50.895065-51.344624z m0-359.413368h366.449464c30.537039 0 50.893067 20.535852 50.893067 51.344624 0 30.806774-20.356028 51.342626-50.893067 51.342626H52.893105C22.354068 432.686572 1.99804 412.15072 1.99804 381.343946 1.99804 350.535173 22.354068 329.999322 52.893105 329.999322z m198.493252-251.590157H52.893105C22.354068 78.409165 1.99804 57.873314 1.99804 27.064541c0-30.806774 20.356028-51.344624 50.895065-51.344624h198.493252c30.537039 0 50.895065 20.53785 50.895065 51.344624 0 30.808773-20.358026 51.344624-50.895065 51.344624z m600.565765 15.406884c-10.181011-71.88647-61.076076-143.765947-137.417176-184.845642-117.061147-61.609553-249.388317-46.207664-295.191378 46.214657-45.810054 87.28636 5.091005 210.51146 122.144161 277.26197 71.258086 41.073701 152.690191 46.208663 213.760272 25.672811v585.325718c0 20.541846 10.181011 41.077697 30.53704 46.213658 20.36402 10.266927 40.720048 5.13696 55.985071-10.270923l167.956212-159.166836c20.356028-20.535852 20.356028-51.344624 0-71.880476-20.356028-20.543844-50.895065-20.543844-71.251093 0l-81.434102 77.015438v-611.005522l-5.089007-20.534853z m0 0"  horiz-adv-x="1026" />

    
    <glyph glyph-name="paihangbang" unicode="&#58912;" d="M976.178174-79.109131H47.394209a23.804009 23.804009 0 0 1 0-47.608018h928.783965a23.804009 23.804009 0 1 1 0 47.608018zM99.991091 29.22049h192a22.806236 22.806236 0 1 1 0 45.612472H99.991091a30.930958 30.930958 0 0 0-30.930957 30.930958V610.922049a30.930958 30.930958 0 0 0 30.930957 30.930958h192a22.806236 22.806236 0 0 1 0 45.612472H99.991091A76.54343 76.54343 0 0 1 23.5902 610.922049v-505.300668a76.54343 76.54343 0 0 1 76.54343-76.54343zM607.714922 896H415.429844a76.54343 76.54343 0 0 1-76.54343-76.54343v-713.835189a76.54343 76.54343 0 0 1 76.54343-76.54343h192.285078a76.54343 76.54343 0 0 1 76.54343 76.54343V819.171492A76.54343 76.54343 0 0 1 607.714922 896z m30.930958-790.093541a30.930958 30.930958 0 0 0-30.930958-30.930958H415.429844a30.930958 30.930958 0 0 0-30.930958 30.930958V819.171492a30.930958 30.930958 0 0 0 30.930958 30.930958h192.285078a30.930958 30.930958 0 0 0 30.930958-30.930958zM923.153675 549.060134H730.868597a22.806236 22.806236 0 1 1 0-45.612473h192.285078a30.930958 30.930958 0 0 0 30.930958-30.930957v-366.895323a30.930958 30.930958 0 0 0-30.930958-30.930958H730.868597a22.806236 22.806236 0 1 1 0-45.612472h192.285078a76.54343 76.54343 0 0 1 76.54343 76.54343V472.659243a76.54343 76.54343 0 0 1-76.54343 76.54343z"  horiz-adv-x="1024" />

    
    <glyph glyph-name="viphuiyuanhuangguan" unicode="&#58626;" d="M943.6 603.7a31.86 31.86 0 0 1-36.7-3.7L712.7 431.7 539.9 720c-5.8 9.6-16.2 15.5-27.4 15.6-11.2 0-21.6-5.9-27.4-15.5L311.4 431.8l-192.6 168c-10.2 8.9-24.9 10.4-36.7 3.8-11.8-6.6-18.2-20-15.9-33.3L104.1 348c3-17.4 19.5-29.1 36.9-26.2 17.4 3 29.1 19.5 26.2 36.9l-22.8 133.8 153.7-134c7.1-6.2 16.7-9 26-7.5s17.6 7 22.4 15.1l165.9 275.4 164.9-275.3c4.9-8.1 13.1-13.7 22.4-15.2 9.3-1.5 18.9 1.2 26 7.4l154.9 134.2-75.5-428.4-586.3 0.1L192 218.89999999999998c-3 17.4-19.6 29.1-37 26.1s-29.1-19.6-26.1-37l31.4-181.1c2.7-15.3 16-26.5 31.5-26.5l640.1-0.1c15.5 0 28.8 11.2 31.5 26.4l95.8 543.6c2.5 13.3-3.8 26.7-15.6 33.4zM830.9-64H193.1c-17.7 0-32-14.3-32-32s14.3-32 32-32h637.8c17.7 0 32 14.3 32 32s-14.3 32-32 32zM512 832m-64 0a64 64 0 1 1 128 0 64 64 0 1 1-128 0ZM64 704m-64 0a64 64 0 1 1 128 0 64 64 0 1 1-128 0ZM960 704m-64 0a64 64 0 1 1 128 0 64 64 0 1 1-128 0Z"  horiz-adv-x="1024" />

    
    <glyph glyph-name="fanhui" unicode="&#58915;" d="M670.6 34.39999999999998c-7.6 0-15.1 2.9-20.9 8.6L329.4 363.29999999999995c-11.6 11.5-11.6 30.3 0 41.8l320.2 320.2c5.8 5.8 13.3 8.6 20.9 8.6 7.5 0 15.1-2.9 20.9-8.6 11.5-11.5 11.5-30.2 0-41.8L392 384.2l299.4-299.4c11.5-11.6 11.5-30.3 0-41.8-5.7-5.7-13.3-8.6-20.8-8.6z"  horiz-adv-x="1024" />

    
    <glyph glyph-name="paobuxuanzhong" unicode="&#59210;" d="M251.376965 835.884829c43.942438-108.406474 13.941577-242.64142-72.002067-322.04286-6.605232-6.101015-13.865944-12.113793-22.752754-13.865944-16.172733-3.163956-31.21098 8.823783-42.316341 20.975392a254.036705 254.036705 0 0 0-34.967391 48.946784c-5.193426 9.479264-9.882637 19.639219-10.361642 30.44205-0.781535 17.483695 9.35321 33.353899 19.097187 47.900535l99.683534 148.743766c14.458398 21.567846 32.77405 45.379454 58.678156 46.564362M720.90305 749.247888l-26.962959-10.44988-110.47376-51.682156-121.806018 4.827869 28.929402-83.422563c17.647565-39.32886 37.891844-79.817418 61.224447-121.011877q7.563242-13.24828 15.126485-26.05537a644.829437 644.829437 0 0 0 57.984858-123.532959 642.8756 642.8756 0 0 0 22.437619-82.275471 89.863925 89.863925 0 0 0 17.899673-45.455087 90.758908 90.758908 0 0 0-13.449966-56.232707 116.486538 116.486538 0 0 0-48.203064-2.420237 116.461327 116.461327 0 0 0-44.232363 16.853425l-265.835363 188.828951s152.525387-178.000909 168.130878-182.778357c77.107256-23.219154 77.624077-93.065697 129.608763-140.487227 58.804209-53.635994 100.578518-90.998411 165.773667-111.041003 64.388403-19.853511 122.095942-13.865944 156.861646-7.134659a194.009772 194.009772 0 0 1 58.564707 14.773534 195.52242 195.52242 0 0 1 67.728835 48.37954 261.637764 261.637764 0 0 1 15.391198 27.542808 267.121114 267.121114 0 0 1 24.454484 84.11586A388.485943 388.485943 0 0 1 919.891956 270.771966l-68.913743 42.858373-65.5481 107.738387-38.711196 112.994841-24.580537 173.866336zM455.584508 690.254597a1181.83225 1181.83225 0 0 1 50.535065-135.092114q12.038161-26.925143 25.525943-53.169593 6.126226-11.899501 12.605404-23.635133c2.949665-5.395113 5.609405-11.672604 9.479263-16.462657 0.882378-1.084065 1.941232-2.067286 2.848822-3.138746 0.4664-0.554638 0.920194-1.109276 1.373989-1.663913l0.781535-0.983222c0.176476-0.214292-0.642876 0.869773 0.289924-0.390767q2.079892-2.785794 4.046335-5.634616c9.81961-14.269317 17.899674-29.736148 25.299045-45.379454 13.664258-28.87898 24.744408-58.942869 34.652256-89.284076 7.033815-21.542635 13.424755-43.299562 19.349295-65.169938q5.168216-19.097187 9.882636-38.307822c2.735373-11.269231 5.899329-24.290613 0.60506-35.295131-8.622096-17.861857-33.40432-21.756927-50.812383-18.466917a112.80576 112.80576 0 0 0-49.009811 22.298959c-17.420668 13.941577-34.362331 28.286526-52.299821 41.597833-65.409441 48.556016-133.390384 93.670757-201.245273 138.747681q-16.853425 11.206204-33.744667 22.361987c-6.781707 4.487524-13.10962-6.428756-6.302702-10.878464 74.460121-49.261919 149.109323-98.561653 221.350893-151.138793 19.8283-14.433187 39.681812-28.992429 58.186545-45.177767 25.664602-22.387197 64.690933-40.173422 98.649891-27.2907 19.903933 7.563242 32.030331 24.303219 30.391629 45.984514-0.958011 12.605404-4.727026 25.109965-7.865772 37.362417q-4.840475 18.908106-10.084323 37.690157c-10.840647 38.106136-23.055284 75.922348-38.181769 112.541047-12.504561 30.252969-26.471348 61.426133-47.610611 86.750389-2.65974 3.176562-3.718594 5.811091-5.962356 9.857426q-13.286096 23.950267-25.311651 48.467778a1108.922594 1108.922594 0 0 0-52.703193 127.554083q-6.605232 19.248452-12.605404 38.69859c-2.369816 7.727113-14.546636 4.437102-12.15161-3.353038zM870.302297-127.999987c-80.384661 0-146.588242 33.467347-181.719502 55.715885a22.009035 22.009035 0 0 0-3.781622 3.037902L47.661032 567.944363a22.059457 22.059457 0 0 0-4.953924 23.609922c3.239589 8.306961 33.101791 83.195666 84.456207 156.584327 29.761359 42.467606 61.16142 76.363537 93.279989 100.729783 41.257487 31.261402 84.065439 47.119 127.314579 47.119h0.76893a185.702811 185.702811 0 0 0 59.547928-10.323826 22.059457 22.059457 0 0 0 14.849166-22.311565c-2.521081-38.37085 6.819524-76.13664 26.320083-106.339188 18.529944-28.702505 44.824816-48.669465 74.031538-56.220101 50.295562-13.008777 95.33467 14.105447 110.662841 24.933489 31.51351 35.761531 72.342413 50.799778 104.624852 38.333033a66.985116 66.985116 0 0 0 25.639392-17.9627 22.059457 22.059457 0 0 0 5.495956-17.723198c-9.088496-67.489333-10.14735-170.778012 36.353985-279.550043a513.783658 513.783658 0 0 1 75.594607-124.125412c12.517166-6.781707 24.908278-14.130658 36.908623-21.882982 31.853856-20.584625 79.993893-51.682156 119.121067-90.83454 49.161075-49.161075 72.657548-99.872615 69.846543-150.684999-1.941232-35.219499-16.160128-69.392749-42.228103-101.58695a254.225786 254.225786 0 0 0-45.379454-43.52646c-42.707108-31.248796-86.044487-37.816212-106.88122-40.967562a284.617415 284.617415 0 0 0-42.73232-3.214378z m-156.017084 91.716919c36.631304-22.828386 108.545133-57.556274 192.131567-44.887844 18.693814 2.836216 53.472123 8.105275 87.443687 32.963131 11.042334 8.080064 66.279214 51.430048 69.619645 111.948593 4.953924 89.700054-108.116549 162.773581-168.912412 202.026808a513.992908 513.992908 0 0 1-37.551498 22.072063 22.059457 22.059457 0 0 0-6.580021 5.344691 558.242918 558.242918 0 0 0-84.947817 138.306492c-47.711454 111.620852-49.274524 217.695326-40.992774 290.604982a18.769446 18.769446 0 0 1-1.789967 0.79414c-16.387025 6.302702-41.081011-9.227156-56.976426-27.883153a22.072062 22.072062 0 0 0-3.781621-3.479092c-13.865944-10.210377-57.228534-38.295217-111.456981-38.295217a152.374123 152.374123 0 0 0-38.181769 4.85308c-39.95913 10.336431-75.493764 36.97165-100.049091 75.002154-21.517424 33.328688-33.265661 73.691191-33.757272 115.251208A137.071162 137.071162 0 0 1 348.42597 851.881086c-33.479953 0.176476-67.57757-12.693642-101.183578-38.156557-28.500818-21.593057-56.724318-52.173767-83.825936-90.884963-37.576709-53.623388-63.392576-109.301457-74.069353-134.108892zM770.190179-127.331901c-79.741785 0-139.226686 9.756583-180.799308 29.521856-6.504388 3.088324-71.094478 34.299304-73.842456 35.635477a22.046851 22.046851 0 0 0-6.000172 4.260626L6.453967 445.180334a22.059457 22.059457 0 0 0-6.302702 17.912279 321.084849 321.084849 0 0 0 14.697901 67.791862 321.122665 321.122665 0 0 0 29.547067 64.048058 22.059457 22.059457 0 0 0 30.252969 7.563242 22.059457 22.059457 0 0 0 7.563242-30.252969A276.928119 276.928119 0 0 1 56.724318 517.005926a276.965935 276.965935 0 0 1-11.344864-48.165249l492.871293-492.871293c13.689469-6.617837 64.690933-31.248796 70.237311-33.895931 44.610524-21.214895 119.85218-29.105878 223.670287-23.458657a22.059457 22.059457 0 1 0 2.395027-44.055886q-34.223672-1.890811-64.363193-1.890811zM733.142897 501.967679h-106.465241a22.059457 22.059457 0 0 0-22.059457 22.097273 22.059457 22.059457 0 0 0 22.059457 22.059457h106.477847a22.059457 22.059457 0 0 0 22.059457-22.059457 22.059457 22.059457 0 0 0-22.072063-22.097273zM757.483932 412.103754h-106.515663a22.059457 22.059457 0 0 0-22.059457 22.059457 22.059457 22.059457 0 0 0 22.059457 22.059457h106.515663a22.059457 22.059457 0 0 0 22.059457-22.059457 22.059457 22.059457 0 0 0-22.059457-22.059457zM846.65456 311.714318H679.960698a22.059457 22.059457 0 0 0-22.109878 22.009035 22.059457 22.059457 0 0 0 22.109878 22.109878h166.693862a22.059457 22.059457 0 0 0 22.059457-22.059457 22.059457 22.059457 0 0 0-22.059457-22.059456z"  horiz-adv-x="1107" />

    
    <glyph glyph-name="yinlex" unicode="&#58883;" d="M908.681846 896c-31.035077 0-56.123077-25.088-56.123077-56.123077v-957.991385h112.246154V839.995077C964.804923 870.912 939.716923 896 908.681846 896z m-264.388923-517.632c-30.995692 0-56.083692-25.088-56.083692-56.123077v-440.359385h112.246154V322.244923c0 31.035077-25.127385 56.123077-56.162462 56.123077zM379.943385 783.241846c-31.035077 0-56.123077-25.088-56.123077-56.123077V-118.15384600000004h112.246154V727.04c0 30.916923-25.206154 56.162462-56.123077 56.162462zM115.318154 584.861538C84.283077 584.861538 59.195077 559.812923 59.195077 528.777846V-118.15384600000004h112.246154V528.659692c0 30.995692-25.206154 56.241231-56.123077 56.241231z"  horiz-adv-x="1024" />

    
    <glyph glyph-name="ziyuan" unicode="&#58635;" d="M982.528 526.592a41.472 41.472 0 0 0-41.472 41.472V727.296a85.76 85.76 0 0 1-85.76 85.76h-159.232a41.472 41.472 0 0 0 0 82.944h158.976A168.96 168.96 0 0 0 1024 727.296v-158.976a41.472 41.472 0 0 0-41.472-41.728zM41.472 526.592A41.472 41.472 0 0 0 0 568.0640000000001V727.296A168.96 168.96 0 0 0 168.704 896h158.976a41.472 41.472 0 0 0 0-82.944H168.704a85.76 85.76 0 0 1-85.76-85.76v-158.976a41.472 41.472 0 0 0-41.472-41.728zM327.936-128H168.704A168.96 168.96 0 0 0 0 40.70399999999995v159.232a41.472 41.472 0 0 0 82.944 0v-158.976a85.76 85.76 0 0 1 85.76-85.76h158.976a41.472 41.472 0 0 0 0-82.944zM855.296-128h-159.232a41.472 41.472 0 0 0 0 82.944h158.976a85.76 85.76 0 0 1 85.76 85.76v159.232a41.472 41.472 0 1 0 82.944 0v-158.976a168.96 168.96 0 0 0-168.448-168.96zM716.8 691.2H307.2a102.4 102.4 0 0 1-102.4-102.4v-409.6a102.4 102.4 0 0 1 102.4-102.4h409.6a102.4 102.4 0 0 1 102.4 102.4V588.8a102.4 102.4 0 0 1-102.4 102.4z m15.872-312.32a38.4 38.4 0 0 0-38.4-38.4H329.728a38.4 38.4 0 0 0-38.4 38.4v10.24a38.4 38.4 0 0 0 38.4 38.4h364.544a38.4 38.4 0 0 0 38.4-38.4z"  horiz-adv-x="1024" />

    
    <glyph glyph-name="yanjing-bi" unicode="&#59012;" d="M511.7 667.4C239 667.4 74.3 389 74.3 389s190.3-269.8 437.4-269.8S949.1 389 949.1 389 784.3 667.4 511.7 667.4z m286.7-382.7c-92.7-78.2-191.1-127.4-289.6-127.4s-196.9 46.3-289.6 127.4c-31.8 29-63.7 57.9-89.7 89.7-5.8 5.8-8.7 11.6-14.5 17.3 2.9 5.8 8.7 11.6 11.6 17.3 23.1 31.8 52.1 63.7 84 92.7C300.3 582.8 398.8 632 508.8 632S717.3 582.8 807 501.7c31.8-29 57.9-60.8 84-92.7 2.9-5.8 8.7-11.6 11.6-17.3-2.9-5.8-8.7-11.6-14.5-17.3-26-28.9-55-60.8-89.7-89.7zM821.7 110.8L611.2 321.3c20.1 23.6 32.1 54.3 32.1 87.6 0 73.6-60.9 134.5-134.5 134.5-33.9 0-64.4-12.1-87.6-32.1L247 685.5c-7.8 7.8-20.5 7.8-28.3 0-7.8-7.8-7.8-20.5 0-28.3L395 480.9a135.46 135.46 0 0 1-20.7-72c0-76.1 60.9-134.5 134.5-134.5 26.8 0 51.5 7.6 72.1 20.6l212.5-212.5c7.8-7.8 20.5-7.8 28.3 0 7.8 7.8 7.8 20.5 0 28.3z m-267.5 211c-13.5-7.5-28.9-11.8-45.4-11.8-53.3 0-96.4 43.2-96.4 96.4 0 16.5 4.2 32.1 11.5 45.7 6.4 11.9 15.3 22.4 26 30.6 16.3 12.6 36.8 20.1 59 20.1 53.3 0 96.4-43.2 96.4-96.4 0-21.4-7.7-42-20.6-58.5-8.3-10.6-18.7-19.6-30.5-26.1z"  horiz-adv-x="1024" />

    
    <glyph glyph-name="faxian1" unicode="&#59064;" d="M593.92 348.16c-22.528 0-40.96 18.432-40.96 40.96v40.96c0 22.528 18.432 40.96 40.96 40.96s40.96-18.432 40.96-40.96v-40.96c0-22.528-18.432-40.96-40.96-40.96zM388.096 348.16c-22.528 0-40.96 18.432-40.96 40.96v40.96c0 22.528 18.432 40.96 40.96 40.96s40.96-18.432 40.96-40.96v-40.96c0-22.528-18.432-40.96-40.96-40.96zM770.048 52.224c-90.112 0-198.656 15.36-307.2 43.008-135.168 35.84-256 86.016-339.968 143.36C14.336 312.32 3.072 373.76 13.312 412.672c16.384 64.512 68.608 80.896 121.856 90.112 22.528 4.096 43.008-11.264 47.104-33.792s-11.264-43.008-33.792-47.104c-50.176-8.192-52.224-17.408-55.296-29.696-3.072-11.264 14.336-44.032 75.776-84.992 74.752-51.2 190.464-98.304 315.392-131.072 110.592-28.672 220.16-43.008 307.2-39.936 95.232 3.072 136.192 25.6 140.288 39.936 2.048 8.192-8.192 39.936-80.896 88.064-18.432 12.288-23.552 37.888-11.264 56.32s37.888 23.552 56.32 11.264c112.64-74.752 124.928-137.216 114.688-177.152-11.264-43.008-58.368-96.256-217.088-101.376-7.168-1.024-15.36-1.024-23.552-1.024zM755.712 67.584L706.56 133.12c78.848 59.392 119.808 153.6 109.568 251.904-16.384 152.576-153.6 264.192-306.176 247.808-73.728-8.192-140.288-44.032-187.392-101.376s-68.608-130.048-60.416-204.8c0-4.096 1.024-7.168 1.024-11.264 4.096-26.624 11.264-52.224 22.528-75.776l-74.752-33.792c-14.336 31.744-24.576 64.512-28.672 98.304-1.024 5.12-1.024 9.216-2.048 14.336-10.24 96.256 17.408 189.44 78.848 264.192 60.416 74.752 146.432 121.856 242.688 132.096 197.632 20.48 375.808-122.88 396.288-320.512 12.288-128-40.96-249.856-142.336-326.656z"  horiz-adv-x="1024" />

    
    <glyph glyph-name="wodehaoyou" unicode="&#59106;" d="M64.2 384.8c0-247.5 200.4-448.2 447.6-448.2s447.6 200.7 447.6 448.2C959.3 632.4 759 833 511.8 833S64.2 632.4 64.2 384.8zM573.5 638.4c51.1 0 92.6-41.6 92.6-92.7S624.6 453 573.5 453c-1.3 0-2.5 0.3-3.8 0.4 2.5 9.8 3.8 20 3.8 30.5 0 51.5-31.6 95.6-76.3 114.2 16.7 24.3 44.7 40.3 76.3 40.3zM357.4 483.9a92.7 92.6 90 1 1 185.2 0 92.7 92.6 90 1 1-185.2 0ZM635.3 236.5c0-17.1-13.8-30.9-30.9-30.9H295.7c-17 0-30.9 13.8-30.9 34.7V283c0 4.5 2 8.7 5.4 11.6 104.2 87.6 255.5 87.6 359.7 0 3.4-2.9 5.4-7.1 5.4-16.2v-41.9zM758.7 298.4c0-17.1-13.8-30.9-30.9-30.9h-61.7V283c0 13.1-5.3 26-15.3 34.5-38.7 32.9-83.4 54.5-130.1 65.4 14.4 10.2 26.4 23.4 35.4 38.6 69.5 4.3 140.3-17.2 197.1-64.9 3.4-2.9 5.4-7.3 5.4-11.7v-46.5h0.1z"  horiz-adv-x="1024" />

    
    <glyph glyph-name="huanfu" unicode="&#58928;" d="M512-128C229.243871-128 0 101.243871 0 384 0 666.756129 229.243871 896 512 896c282.756129 0 512-229.243871 512-512 0-282.756129-229.243871-512-512-512z m0 66.064516c246.288516 0 445.935484 199.646968 445.935484 445.935484S758.288516 829.935484 512 829.935484 66.064516 630.288516 66.064516 384s199.646968-445.935484 445.935484-445.935484zM664.377806 615.225806v-52.30658L743.225806 489.092129l-20.248774-51.001806c-7.481806 6.276129-32.421161 8.951742-41.76929 8.951742-21.504 0-54.833548-16.103226-54.833548-36.682323v-188.779355c0-19.67071-0.330323-35.773935-20.892904-35.773935H418.51871c-20.579097 0-20.892903 16.103226-20.892904 35.790451V410.359742c0 20.579097-33.329548 36.665806-54.833548 36.665806a40.96 40.96 0 0 1-25.253161-8.935225L280.774194 489.092129l94.422709 73.827097h6.854194l0.941419-0.891871c26.178065-37.574194 75.726452-61.720774 129.007484-61.720774s102.829419 23.25471 129.007484 61.720774c0 0.891871 0.941419 0.891871 0.941419 0.891871h22.428903V615.225806z m-279.419871 0h-20.248774c-12.882581 0-22.098581-3.683097-28.539871-11.065806l-93.894193-93.018839c-14.732387-14.732387-14.732387-37.755871 0-51.579871l54.305032-54.338064c6.44129-6.44129 15.65729-10.140903 23.948387-10.140903 8.274581 0 17.490581 3.683097 23.931871 10.140903h0.908387c0.924903 0 0.924903 0 0.924903-0.924903v-194.345291A73.876645 73.876645 0 0 1 419.955613 136.258065h184.10529a73.876645 73.876645 0 0 1 73.64542 73.694967V404.298323c0 0.924903 0 0.924903 0.924903 0.924903h0.908387c6.44129-6.44129 15.65729-10.140903 23.948387-10.140903 9.199484 0 17.474065 3.683097 23.931871 10.140903l54.305032 54.338064c14.732387 14.732387 14.732387 37.772387 0 51.579871l-92.985806 93.035355A36.864 36.864 0 0 1 662.065548 615.225806h-23.006967c-12.882581 0-23.948387-6.44129-31.298065-17.507096-19.323871-28.539871-55.246452-46.971871-96.668903-46.971871-41.422452 0-77.328516 19.340387-96.652387 46.971871-5.532903 11.065806-17.507097 17.507097-29.464774 17.507096z"  horiz-adv-x="1024" />

    
    <glyph glyph-name="dianli" unicode="&#58966;" d="M605.7 504.4c-24.6 0-45.8-13.9-56.8-34.1h-89.5l-83.1 169.4c-7.5 15.3-29.7 14.1-35.4-1.9L254 397.6l-64.4 287.7c-4.2 18.9-30.5 20.5-37 2.2L65.4 440.9c-5.9-16.7 6.6-34.2 24.3-34 10.7 0.1 20.2 6.9 23.8 16.9l49.2 138L230 272.2c4.4-18.8 30.5-20.2 37-2.1l94.7 267.2 67.8-137h124.8c11.9-15.6 30.4-25.8 51.5-25.8 35.9 0 64.9 29.1 64.9 64.9s-29.2 65-65 65zM814.5 439.5c0 81.1-46.2 151.2-113.7 185.8-10.8 5.6-24.2 2.2-31.3-7.6-8.8-12.1-4.9-29.4 8.4-36.2 51.7-26.4 87.1-80.1 87.1-142 0-63.1-37-117.7-90.3-143.5-13.7-6.6-17.8-24.1-8.9-36.4 7-9.7 20.1-13.1 30.9-7.8 69.7 33.7 117.8 105 117.8 187.7zM755.1 735.9l-0.2-0.2c-8.5-11.8-5-28.1 7.5-35.6 88.4-53.3 147.8-150 147.8-260.6 0-111.9-60.8-209.7-151-262.6-12.6-7.4-16.3-23.9-7.7-35.8l0.1-0.2c7.6-10.4 21.8-13.2 32.9-6.7 104.7 61.5 175.2 175 175.2 305.2 0 128.7-68.8 241.1-171.4 303-11.2 6.8-25.6 4.1-33.2-6.5z"  horiz-adv-x="1024" />

    


  </font>
</defs>
</svg>
